<svg width="12" height="12" viewBox="0 0 12 12" fill="none" xmlns="http://www.w3.org/2000/svg">
  <path
    d="M11.9009 9.18798L8.71196 5.99937L11.8999 2.81111C12.032 2.679 12.032 2.46494 11.8999 2.33284L9.66663 0.0990806C9.53452 -0.0330269 9.3203 -0.0330269 9.18819 0.0990806L5.99976 3.28734L2.81183 0.0990806C2.685 -0.0279262 2.4604 -0.0279262 2.33339 0.0990806L0.0996331 2.3325C0.0362147 2.39592 0.00050995 2.48212 0.00050995 2.57172C0.00050995 2.66132 0.0362147 2.74752 0.0996331 2.81094L3.28807 5.99937L0.099123 9.18815C0.0357046 9.25173 0 9.33777 0 9.42737C0 9.51714 0.0357046 9.60334 0.099123 9.66659L2.33254 11.9002C2.39596 11.9636 2.48233 11.9993 2.57227 11.9993C2.66153 11.9993 2.74756 11.9636 2.81098 11.9002L5.99976 8.7114L9.1887 11.9C9.25484 11.966 9.34104 11.9991 9.42792 11.9991C9.5148 11.9991 9.60117 11.966 9.66731 11.9L11.9011 9.66642C12.033 9.53431 12.033 9.32025 11.9009 9.18798Z"
    fill="#D8D8D8" />
</svg>