<svg width="20" height="23" viewBox="0 0 20 23" fill="none" xmlns="http://www.w3.org/2000/svg">
  <path
    d="M19.2911 14.468L14.4668 12.1668L12.4268 11.1936C13.3177 10.6323 14.0414 9.76602 14.5149 8.72229C14.8907 7.89359 15.1144 6.95584 15.1144 5.95277C15.1144 5.38994 15.025 4.85544 14.9006 4.33974C14.294 1.84101 12.3424 0 9.99954 0C7.70105 0 5.77872 1.77539 5.13455 4.20357C4.98606 4.76055 4.88347 5.33972 4.88347 5.95339C4.88347 7.01899 5.13239 8.01251 5.55537 8.87663C6.04427 9.87908 6.76915 10.7056 7.65145 11.237L5.69769 12.1468L0.716871 14.4665C0.284345 14.6692 0 15.1572 0 15.7022V20.3423V21.175C0 21.9085 0.511083 22.5034 1.14231 22.5034H18.8577C19.4886 22.5034 20 21.9088 20 21.175V20.3423V15.7019C19.9994 15.1587 19.7197 14.6754 19.2911 14.468Z"
    fill="#A1A1A1" />
</svg>