<svg width="22" height="25" viewBox="0 0 22 25" fill="none" xmlns="http://www.w3.org/2000/svg">
  <path
    d="M21.1694 10.2135H19.9933H18.3635V7.54282C18.3645 7.53142 18.3645 7.52033 18.3645 7.51051C18.3645 3.36944 14.9954 0 10.853 0C6.71195 0 3.34251 3.36944 3.34251 7.51051V10.2135H2.00639H0.830243C0.371249 10.2135 0 10.5847 0 11.0437V23.2598C0 23.7185 0.371249 24.09 0.830243 24.09H21.1698C21.6288 24.09 22 23.7188 22 23.2598V11.0437C21.9997 10.585 21.6284 10.2135 21.1694 10.2135ZM7.76582 7.51051C7.76582 5.8079 9.15041 4.4249 10.853 4.4249C12.5449 4.4249 13.9241 5.79332 13.9405 7.48137C13.9405 7.48454 13.9396 7.48802 13.9396 7.49119H13.9405V7.51051V10.2135H7.76582V7.51051Z"
    fill="#A1A1A1" />
</svg>