<svg width="12" height="11" viewBox="0 0 12 11" fill="none" xmlns="http://www.w3.org/2000/svg">
  <path
    d="M8.64478 0C7.59189 0 6.62687 0.486414 5.99985 1.30301C5.37283 0.486264 4.40781 0 3.35446 0C1.51186 0 0.00709738 1.50416 3.70082e-05 3.35293C-0.00687314 5.3426 0.95529 6.51567 1.72863 7.45861L1.89447 7.66125C2.81006 8.79016 5.64878 10.8178 5.76896 10.9036C5.83776 10.9529 5.91918 10.9775 6 10.9775C6.08097 10.9775 6.16224 10.9527 6.23119 10.9036C6.35137 10.8178 9.19009 8.79016 10.1057 7.66125L10.2714 7.45861C11.0446 6.51567 12.0069 5.3426 12 3.35293C11.9928 1.50416 10.4878 0 8.64478 0Z"
    fill="#D8D8D8" />
</svg>