<svg width="22" height="18" viewBox="0 0 22 18" fill="none" xmlns="http://www.w3.org/2000/svg">
  <path
    d="M21.2697 0H0.730286C0.327429 0 0 0.327715 0 0.730572V2.20029C0 2.268 0.0734286 2.34572 0.133429 2.37714L10.9294 8.54372C10.9574 8.56 10.9889 8.56743 11.0203 8.56743C11.0523 8.56743 11.0846 8.55914 11.1129 8.54229L21.5826 2.38314C21.6414 2.35029 21.7974 2.26343 21.856 2.22343C21.9269 2.17514 22 2.13143 22 2.04486V0.730286C22 0.327715 21.6726 0 21.2697 0Z"
    fill="#A1A1A1" />
  <path
    d="M21.9089 4.41629C21.8517 4.38315 21.782 4.38458 21.7246 4.41743L15.7997 7.90343C15.7523 7.93086 15.7194 7.97943 15.7114 8.03429C15.7043 8.08886 15.7214 8.14457 15.7583 8.18486L21.684 14.5726C21.7191 14.6106 21.7671 14.6309 21.8174 14.6309C21.84 14.6309 21.8629 14.6266 21.8843 14.6186C21.9543 14.5909 22 14.5237 22 14.4483V4.57486C22 4.50915 21.9654 4.44886 21.9089 4.41629Z"
    fill="#A1A1A1" />
  <path
    d="M14.0923 9.07401C14.034 9.01086 13.9403 8.99686 13.8663 9.04029L11.4914 10.4377C11.2126 10.6017 10.8554 10.6031 10.5749 10.4437L8.48486 9.24972C8.41572 9.21058 8.32857 9.22001 8.27029 9.27429L0.333715 16.636C0.291429 16.6754 0.270286 16.7323 0.276572 16.7897C0.282858 16.8472 0.316286 16.8986 0.366286 16.9274C0.489715 17 0.608858 17.0346 0.730001 17.0346H21.0594C21.1323 17.0346 21.198 16.9914 21.2266 16.9246C21.2557 16.8583 21.2426 16.7809 21.1929 16.7277L14.0923 9.07401Z"
    fill="#A1A1A1" />
  <path
    d="M6.524 8.40343C6.56686 8.36429 6.58829 8.30657 6.582 8.24914C6.57572 8.19143 6.54143 8.14029 6.49114 8.11114L0.272286 4.55914C0.216857 4.52714 0.146857 4.52771 0.0902857 4.56029C0.0342857 4.59286 0 4.65314 0 4.718V14.038C0 14.1103 0.0428571 14.176 0.109143 14.2049C0.132571 14.2154 0.157429 14.2206 0.182571 14.2206C0.227429 14.2206 0.272286 14.2037 0.306571 14.1717L6.524 8.40343Z"
    fill="#A1A1A1" />
</svg>