<svg width="17" height="16" viewBox="0 0 17 16" fill="none" xmlns="http://www.w3.org/2000/svg">
  <g clip-path="url(#clip0_17_196)">
    <path
      d="M8.45994 12.0406L12.4157 14.0844L11.6614 9.75937L14.8629 6.69688L10.4394 6.06563L8.45994 2.12812V0C8.82274 0 9.18553 0.184375 9.37329 0.55625L11.4514 4.69375L16.1009 5.35625C16.9347 5.475 17.2688 6.48438 16.6642 7.0625L13.3004 10.2812L14.096 14.8281C14.2392 15.6438 13.364 16.2656 12.6194 15.8813L8.45994 13.7375V12.0406Z"
      fill="#FFC403" />
  </g>
  <g clip-path="url(#clip1_17_196)">
    <path
      d="M8.5129 12.0406L4.55716 14.0844L5.31139 9.75937L2.10989 6.69688L6.53344 6.06563L8.5129 2.12812V0C8.1501 0 7.78731 0.184375 7.59954 0.55625L5.52143 4.69375L0.871934 5.35625C0.038143 5.475 -0.29601 6.48438 0.308648 7.0625L3.67245 10.2812L2.87685 14.8281C2.73364 15.6438 3.6088 16.2656 4.35349 15.8813L8.5129 13.7375V12.0406Z"
      fill="#FFC403" />
  </g>
  <defs>
    <clipPath id="clip0_17_196">
      <rect width="8.51358" height="16" fill="white" transform="translate(8.48645)" />
    </clipPath>
    <clipPath id="clip1_17_196">
      <rect width="8.51358" height="16" fill="white" />
    </clipPath>
  </defs>
</svg>