<svg width="17" height="16" viewBox="0 0 17 16" fill="none" xmlns="http://www.w3.org/2000/svg">
  <path
    d="M8.51296 0C8.15016 0 7.78737 0.184375 7.5996 0.55625L5.52149 4.69375L0.871995 5.35625C0.038204 5.475 -0.295949 6.48438 0.308709 7.0625L3.67251 10.2812L2.87691 14.8281C2.7337 15.6438 3.60887 16.2656 4.35355 15.8813L8.51296 13.7375V0Z"
    fill="#FFC403" />
  <path
    d="M8.45988 0C8.82268 0 9.18547 0.184375 9.37323 0.55625L11.4513 4.69375L16.1008 5.35625C16.9346 5.475 17.2688 6.48438 16.6641 7.0625L13.3003 10.2812L14.0959 14.8281C14.2391 15.6438 13.364 16.2656 12.6193 15.8813L8.45988 13.7375V0Z"
    fill="#FFC403" />
</svg>